<?xml version="1.0" encoding="UTF-8" standalone="no"?>
<!-- Created with Inkscape (http://www.inkscape.org/) -->

<svg
   width="100mm"
   height="100mm"
   viewBox="0 0 100 100"
   version="1.1"
   id="svg5"
   xml:space="preserve"
   inkscape:version="1.2.2 (b0a8486541, 2022-12-01)"
   sodipodi:docname="favicon.svg"
   xmlns:inkscape="http://www.inkscape.org/namespaces/inkscape"
   xmlns:sodipodi="http://sodipodi.sourceforge.net/DTD/sodipodi-0.dtd"
   xmlns="http://www.w3.org/2000/svg"
   xmlns:svg="http://www.w3.org/2000/svg"><sodipodi:namedview
     id="namedview7"
     pagecolor="#505050"
     bordercolor="#eeeeee"
     borderopacity="1"
     inkscape:showpageshadow="0"
     inkscape:pageopacity="0"
     inkscape:pagecheckerboard="0"
     inkscape:deskcolor="#505050"
     inkscape:document-units="mm"
     showgrid="false"
     inkscape:zoom="1.5518659"
     inkscape:cx="64.760751"
     inkscape:cy="169.47341"
     inkscape:window-width="1920"
     inkscape:window-height="1007"
     inkscape:window-x="0"
     inkscape:window-y="0"
     inkscape:window-maximized="1"
     inkscape:current-layer="layer1" /><defs
     id="defs2"><inkscape:path-effect
       effect="tiling"
       id="path-effect225"
       is_visible="true"
       lpeversion="1"
       unit="px"
       seed="1;1"
       lpesatellites=""
       num_rows="1"
       num_cols="3"
       gapx="14"
       gapy="0"
       offset="0"
       offset_type="false"
       scale="0"
       rotate="0"
       mirrorrowsx="false"
       mirrorrowsy="false"
       mirrorcolsx="false"
       mirrorcolsy="false"
       mirrortrans="false"
       shrink_interp="false"
       split_items="false"
       link_styles="false"
       interpolate_scalex="false"
       interpolate_scaley="true"
       interpolate_rotatex="false"
       interpolate_rotatey="true"
       random_scale="false"
       random_rotate="false"
       random_gap_y="false"
       random_gap_x="false"
       transformorigin="matrix(2.3299819,0,0,2.3299819,-16.02077,-65.544388)" /><inkscape:path-effect
       effect="construct_grid"
       id="path-effect223"
       is_visible="true"
       lpeversion="1"
       nr_x="19"
       nr_y="5" /></defs><g
     inkscape:label="Layer 1"
     inkscape:groupmode="layer"
     id="layer1"><path
       d="m 13.266107,53.482521 v -3.307292 l -2.8575,1.653646 -0.7276035,-1.230312 2.8707285,-1.666875 -2.8574995,-1.653646 0.7143745,-1.230313 2.8575,1.653646 v -3.320521 h 1.42875 v 3.320521 l 2.8575,-1.653646 0.714375,1.230313 -2.8575,1.653646 2.870729,1.666875 -0.727604,1.230312 -2.8575,-1.653646 v 3.307292 z m 10.188741,0 v -3.307292 l -2.8575,1.653646 -0.727604,-1.230312 2.870729,-1.666875 -2.8575,-1.653646 0.714375,-1.230313 2.8575,1.653646 v -3.320521 h 1.42875 v 3.320521 l 2.8575,-1.653646 0.714375,1.230313 -2.8575,1.653646 2.870729,1.666875 -0.727604,1.230312 -2.8575,-1.653646 v 3.307292 z m 10.188741,0 v -3.307292 l -2.8575,1.653646 -0.727604,-1.230312 2.870729,-1.666875 -2.8575,-1.653646 0.714375,-1.230313 2.8575,1.653646 v -3.320521 h 1.42875 v 3.320521 l 2.8575,-1.653646 0.714375,1.230313 -2.8575,1.653646 2.870729,1.666875 -0.727604,1.230312 -2.8575,-1.653646 v 3.307292 z"
       id="path16"
       style="fill:#ffffff;stroke-width:0.0132292"
       inkscape:path-effect="#path-effect225"
       inkscape:original-d="m 13.266107,53.482521 v -3.307292 l -2.8575,1.653646 -0.7276035,-1.230312 2.8707285,-1.666875 -2.8574995,-1.653646 0.7143745,-1.230313 2.8575,1.653646 v -3.320521 h 1.42875 v 3.320521 l 2.8575,-1.653646 0.714375,1.230313 -2.8575,1.653646 2.870729,1.666875 -0.727604,1.230312 -2.8575,-1.653646 v 3.307292 z"
       class="UnoptimicedTransforms"
       transform="matrix(2.3299819,0,0,2.3299819,-13.633859,-64.009945)" /><rect
       style="fill:none;stroke:#ffffff;stroke-width:2;stroke-linecap:round;stroke-linejoin:round;stroke-miterlimit:4.1;stroke-dasharray:none;stroke-opacity:1"
       id="rect375"
       width="98"
       height="38.53157"
       x="1"
       y="30.734215"
       rx="9.6000004" /></g></svg>
